<?xml version="1.0" standalone="no"?><!DOCTYPE svg PUBLIC "-//W3C//DTD SVG 1.1//EN" "http://www.w3.org/Graphics/SVG/1.1/DTD/svg11.dtd"><svg t="1491752862554" class="icon" style="" viewBox="0 0 1024 1024" version="1.1" xmlns="http://www.w3.org/2000/svg" p-id="1443" xmlns:xlink="http://www.w3.org/1999/xlink" width="16" height="16"><defs><style type="text/css"></style></defs><path d="M861.003001 771.060001 640.759998 771.060001C623.159998 771.060001 608.759998 756.660001 608.759998 739.060001L608.759998 703.337999 798.473 703.337999C816.073 703.337999 830.473 688.937999 830.473 671.337999L830.473 164.611C830.473 147.011 816.073 132.611 798.473 132.611L640.761 132.611 640.761 64.613C640.761 29.323 612.050999 0.613 576.761 0.613L447.741001 0.613C412.450999 0.613 383.741001 29.323 383.741001 64.613L383.741001 132.611 220.409 132.611C202.809 132.611 188.409 147.011 188.409 164.611L188.409 671.337999C188.409 688.937999 202.809 703.337999 220.409 703.337999L415.741001 703.337999 415.741001 739.060001C415.741001 756.660001 401.341001 771.060001 383.741001 771.060001L158.498 771.060001C140.898 771.060001 126.498 785.460001 126.498 803.060001L126.498 990.999998C126.498 1008.599998 140.898 1022.999998 158.498 1022.999998L861.003001 1022.999998C878.603001 1022.999998 893.003001 1008.599998 893.003001 990.999998L893.003001 803.060001C893.003001 785.460001 878.603001 771.060001 861.003001 771.060001L861.003001 771.060001ZM704.399002 415.298C704.399002 450.644001 675.744998 479.298 640.399002 479.298 605.053001 479.298 576.399002 450.644001 576.399002 415.298 576.399002 379.952 605.053001 351.298 640.399002 351.298 675.744998 351.298 704.399002 379.951002 704.399002 415.298L704.399002 415.298ZM447.741001 64.67C447.758 64.65 447.778 64.629 447.798001 64.613L576.703002 64.613C576.724001 64.63 576.744002 64.651 576.761 64.671L576.761 132.611 447.741001 132.611 447.741001 64.67 447.741001 64.67ZM322.8 415.298C322.8 379.952 351.454 351.298 386.8 351.298 422.146 351.298 450.8 379.952 450.8 415.298 450.8 450.644001 422.146 479.298 386.8 479.298 351.454 479.298 322.8 450.644001 322.8 415.298L322.8 415.298ZM927.570999 283.304 927.570999 547.291001C927.570999 564.964001 913.243999 579.291001 895.570999 579.291001 877.897999 579.291001 863.570999 564.964001 863.570999 547.291001L863.570999 283.304C863.570999 265.631 877.897999 251.304 895.570999 251.304 913.243999 251.304 927.570999 265.631 927.570999 283.304L927.570999 283.304ZM1023.067001 349.361 1023.067001 477.490999C1023.067001 495.163999 1008.740001 509.490999 991.067001 509.490999 973.394 509.490999 959.067001 495.163999 959.067001 477.490999L959.067001 349.361C959.067001 331.688 973.394 317.361 991.067001 317.361 1008.740001 317.361 1023.067001 331.688 1023.067001 349.361L1023.067001 349.361ZM127.609 579.291001C109.936 579.291001 95.609 564.964001 95.609 547.291001L95.609 283.304C95.609 265.631 109.936 251.304 127.609 251.304 145.282 251.304 159.609 265.631 159.609 283.304L159.609 547.291001C159.609 564.964001 145.282 579.291001 127.609 579.291001L127.609 579.291001ZM64.113 349.361 64.113 477.490999C64.113 495.163999 49.786 509.490999 32.113 509.490999 14.44 509.490999 0.113 495.163999 0.113 477.490999L0.113 349.361C0.113 331.688 14.44 317.361 32.113 317.361 49.786 317.361 64.113 331.688 64.113 349.361L64.113 349.361Z" p-id="1444" fill="#0275d8"></path></svg>